# xmcd
#
# Track frame offsets:
#	150
#	11551
#	25712
#	41507
#	56354
#	70098
#	83436
#	96075
#	113253
#	125511
#	139590
#	153801
#
# Disc length: 2227 seconds
# Revision: 0
# Processed by: cddbd v1.5.2PL0 Copyright (c) Steve Scherf et al.
# Submitted via: dBpowerAMP V12.0
#
DISCID=7f08b10c
DTITLE=Anita Ree - Story Songs
DYEAR=2008
DGENRE=Country
TTITLE0=Auctioneer
TTITLE1=Dogs Like Fishing too
TTITLE2=Neville Brown
TTITLE3=Louie
TTITLE4=Honey Man
TTITLE5=Stop for Whoa
TTITLE6=The Meatworks Song
TTITLE7=Wattle Bender
TTITLE8=Sundown
TTITLE9=Points, Mls and Inches
TTITLE10=The Drovers are Back
TTITLE11=Story Songs
EXTD=
EXTT0=
EXTT1=
EXTT2=
EXTT3=
EXTT4=
EXTT5=
EXTT6=
EXTT7=
EXTT8=
EXTT9=
EXTT10=
EXTT11=
PLAYORDER=
